<svg id="レイヤー_1" data-name="レイヤー 1" xmlns="http://www.w3.org/2000/svg" viewBox="0 0 268.31 76.05"><path d="M273.13,415.89c1.61,0,5.29.09,7.62,2.29a7.67,7.67,0,0,1,2.15,5.64,7,7,0,0,1-1,3.81,5.41,5.41,0,0,1-2.51,2.2,7.74,7.74,0,0,1,4.13,2,7.29,7.29,0,0,1,1.92,5.33,8.17,8.17,0,0,1-2.33,6.05c-2.46,2.37-6.05,2.55-7.88,2.55H265a1,1,0,0,1-1-1V416.9a1,1,0,0,1,1-1ZM270.8,428h1.12a6.42,6.42,0,0,0,3.5-.86,3.17,3.17,0,0,0,1.21-2.64,3,3,0,0,0-1.17-2.51,5.75,5.75,0,0,0-3.58-.76H270.8Zm0,12.37h1.66c1.75,0,3.85-.05,5.11-1.21a3.35,3.35,0,0,0,1-2.51,3.2,3.2,0,0,0-.94-2.42c-1.21-1.12-3.54-1.12-4.93-1.12H270.8Z" transform="translate(-163.57 -383.03)" style="fill:#231815"/><path d="M315.88,433.59c0,2.87-.36,6.41-3.32,9.46s-6.18,3.4-9.32,3.4-6.45-.44-9.32-3.4-3.31-6.59-3.31-9.46V416.9a1,1,0,0,1,1-1h4.88a1,1,0,0,1,1,1v16.51c0,1.3.09,3.5,1.57,5a6.31,6.31,0,0,0,8.33,0c1.48-1.52,1.57-3.72,1.57-5V416.9a1,1,0,0,1,1-1h4.88a1,1,0,0,1,1,1Z" transform="translate(-163.57 -383.03)" style="fill:#231815"/><path d="M431.88,433.59c0,2.87-.36,6.41-3.32,9.46s-6.18,3.4-9.32,3.4-6.45-.44-9.32-3.4-3.31-6.59-3.31-9.46V416.9a1,1,0,0,1,1-1h4.88a1,1,0,0,1,1,1v16.51c0,1.3.09,3.5,1.57,5a6.31,6.31,0,0,0,8.33,0c1.48-1.52,1.57-3.72,1.57-5V416.9a1,1,0,0,1,1-1h4.88a1,1,0,0,1,1,1Z" transform="translate(-163.57 -383.03)" style="fill:#231815"/><path d="M322.42,445.08V416.59a.7.7,0,0,1,.7-.7h4a.7.7,0,0,1,.57.29l13.55,19V416.59a.7.7,0,0,1,.7-.7h4.46a.69.69,0,0,1,.69.7v28.49a.69.69,0,0,1-.69.7h-4a.72.72,0,0,1-.57-.29l-13.55-19.07v18.66a.69.69,0,0,1-.69.7h-4.46A.7.7,0,0,1,322.42,445.08Z" transform="translate(-163.57 -383.03)" style="fill:#231815"/><path d="M368.58,421.72V445a.75.75,0,0,1-.75.74h-5.41a.74.74,0,0,1-.74-.74V421.72h-7.76a.74.74,0,0,1-.74-.74v-4.35a.74.74,0,0,1,.74-.74h22.41a.74.74,0,0,1,.74.74V421a.74.74,0,0,1-.74.74Z" transform="translate(-163.57 -383.03)" style="fill:#231815"/><path d="M397.76,422.15a1.08,1.08,0,0,1-1.57.3A6.84,6.84,0,0,0,392.1,421a3.72,3.72,0,0,0-2.91,1,2.65,2.65,0,0,0-.77,1.88,2.1,2.1,0,0,0,.68,1.66c.71.67,1.74.94,3.76,1.7l2.24.85a12,12,0,0,1,4.08,2.29,7.44,7.44,0,0,1,2.2,5.55,10.72,10.72,0,0,1-2.65,7.4c-2.64,2.78-6.5,3-8.47,3a12.65,12.65,0,0,1-5.91-1.25,17.81,17.81,0,0,1-3.69-2.61,1.06,1.06,0,0,1-.14-1.43l2.3-3.17a1.08,1.08,0,0,1,1.59-.18,15.67,15.67,0,0,0,1.91,1.47,6.89,6.89,0,0,0,3.76,1.08,4.79,4.79,0,0,0,3.14-1,3.1,3.1,0,0,0,1.08-2.42,2.63,2.63,0,0,0-1-2.15,14.42,14.42,0,0,0-3.49-1.66l-2.47-.85a9.92,9.92,0,0,1-4.16-2.38,7.33,7.33,0,0,1-1.8-5.19,9.21,9.21,0,0,1,2.6-6.73,9.64,9.64,0,0,1,7.4-2.73,14.37,14.37,0,0,1,8,2.34,1.09,1.09,0,0,1,.35,1.49Z" transform="translate(-163.57 -383.03)" style="fill:#231815"/><rect x="2.52" y="25.23" width="67.04" height="48.29" style="fill:#fff;stroke:#231815;stroke-linecap:round;stroke-linejoin:round;stroke-width:5.04568525142211px"/><polygon points="2.52 25.23 36.04 49.38 69.56 25.23 2.52 25.23" style="fill:#e60012;stroke:#231815;stroke-linecap:round;stroke-linejoin:round;stroke-width:5.04568525142211px"/><path d="M234.93,385.55a20.91,20.91,0,0,0-17.33,32.59,21.34,21.34,0,0,0,2.92,3.44v8.72l7.82-4a21.15,21.15,0,0,0,6.59,1.06,20.91,20.91,0,1,0,0-41.81Z" transform="translate(-163.57 -383.03)" style="fill:#fff;stroke:#231815;stroke-linejoin:round;stroke-width:5.04568525142211px"/></svg>