<svg id="レイヤー_1" data-name="レイヤー 1" xmlns="http://www.w3.org/2000/svg" viewBox="0 0 268.31 76.05"><path d="M395.9,292.84c1.62,0,5.29.09,7.62,2.28a7.71,7.71,0,0,1,2.15,5.65,7.06,7.06,0,0,1-1,3.81,5.57,5.57,0,0,1-2.51,2.2,7.81,7.81,0,0,1,4.12,2,7.29,7.29,0,0,1,1.93,5.34,8.21,8.21,0,0,1-2.33,6.05c-2.47,2.37-6,2.55-7.89,2.55H387.77a1,1,0,0,1-1-1V293.85a1,1,0,0,1,1-1ZM393.57,305h1.12a6.4,6.4,0,0,0,3.5-.85,3.16,3.16,0,0,0,1.21-2.64,3,3,0,0,0-1.17-2.51,5.73,5.73,0,0,0-3.58-.76h-1.08Zm0,12.37h1.66c1.75,0,3.86,0,5.11-1.21a3.29,3.29,0,0,0,1-2.51,3.22,3.22,0,0,0-.95-2.42c-1.21-1.12-3.54-1.12-4.92-1.12h-1.89Z" transform="translate(-286.35 -259.98)" style="fill:#231815"/><path d="M438.65,310.54c0,2.87-.36,6.41-3.31,9.46s-6.19,3.4-9.32,3.4-6.46-.45-9.33-3.4-3.31-6.59-3.31-9.46V293.85a1,1,0,0,1,1-1h4.88a1,1,0,0,1,1,1v16.51c0,1.3.09,3.5,1.57,5a6.31,6.31,0,0,0,8.33,0c1.48-1.52,1.57-3.72,1.57-5V293.85a1,1,0,0,1,1-1h4.88a1,1,0,0,1,1,1Z" transform="translate(-286.35 -259.98)" style="fill:#231815"/><path d="M554.65,310.54c0,2.87-.36,6.41-3.31,9.46s-6.19,3.4-9.32,3.4-6.46-.45-9.33-3.4-3.31-6.59-3.31-9.46V293.85a1,1,0,0,1,1-1h4.88a1,1,0,0,1,1,1v16.51c0,1.3.09,3.5,1.57,5a6.31,6.31,0,0,0,8.33,0c1.48-1.52,1.57-3.72,1.57-5V293.85a1,1,0,0,1,1-1h4.88a1,1,0,0,1,1,1Z" transform="translate(-286.35 -259.98)" style="fill:#231815"/><path d="M445.19,322V293.54a.7.7,0,0,1,.7-.7h4a.73.73,0,0,1,.57.29l13.54,19V293.54a.7.7,0,0,1,.7-.7h4.46a.7.7,0,0,1,.7.7V322a.7.7,0,0,1-.7.7h-4a.7.7,0,0,1-.56-.29l-13.55-19.07V322a.7.7,0,0,1-.7.7h-4.46A.7.7,0,0,1,445.19,322Z" transform="translate(-286.35 -259.98)" style="fill:#231815"/><path d="M491.35,298.67V322a.74.74,0,0,1-.74.74h-5.42a.74.74,0,0,1-.74-.74V298.67h-7.76a.75.75,0,0,1-.74-.75v-4.34a.74.74,0,0,1,.74-.74H499.1a.75.75,0,0,1,.75.74v4.34a.76.76,0,0,1-.75.75Z" transform="translate(-286.35 -259.98)" style="fill:#231815"/><path d="M520.53,299.1a1.09,1.09,0,0,1-1.57.3,6.82,6.82,0,0,0-4.09-1.41,3.76,3.76,0,0,0-2.91,1,2.67,2.67,0,0,0-.76,1.89,2.08,2.08,0,0,0,.67,1.65c.72.68,1.75.95,3.76,1.71l2.25.85A11.93,11.93,0,0,1,522,307.4a7.46,7.46,0,0,1,2.2,5.56,10.74,10.74,0,0,1-2.65,7.4c-2.64,2.77-6.49,3-8.47,3a12.65,12.65,0,0,1-5.91-1.25,18.35,18.35,0,0,1-3.69-2.61,1.07,1.07,0,0,1-.14-1.43l2.3-3.18a1.09,1.09,0,0,1,1.59-.17,15.67,15.67,0,0,0,1.91,1.47,7,7,0,0,0,3.77,1.08,4.76,4.76,0,0,0,3.13-1,3.08,3.08,0,0,0,1.08-2.42,2.61,2.61,0,0,0-1-2.15,14.29,14.29,0,0,0-3.5-1.66l-2.46-.85a10.07,10.07,0,0,1-4.17-2.38,7.34,7.34,0,0,1-1.79-5.2,9.16,9.16,0,0,1,2.6-6.72c2.1-2.15,4.61-2.73,7.39-2.73a14.39,14.39,0,0,1,8,2.34,1.09,1.09,0,0,1,.35,1.49Z" transform="translate(-286.35 -259.98)" style="fill:#231815"/><rect x="2.52" y="25.23" width="67.04" height="48.29" style="fill:none;stroke:#231815;stroke-linecap:round;stroke-linejoin:round;stroke-width:5.045685251422107px"/><polygon points="2.52 25.23 36.04 49.38 69.56 25.23 2.52 25.23" style="fill:none;stroke:#231815;stroke-linecap:round;stroke-linejoin:round;stroke-width:5.045685251422107px"/><path d="M357.71,262.5a20.91,20.91,0,0,0-17.34,32.59,21.34,21.34,0,0,0,2.92,3.44v8.71l7.83-4a20.9,20.9,0,1,0,6.59-40.74Z" transform="translate(-286.35 -259.98)" style="fill:#fff;stroke:#231815;stroke-linejoin:round;stroke-width:5.045685251422107px"/></svg>