<svg id="レイヤー_1" data-name="レイヤー 1" xmlns="http://www.w3.org/2000/svg" viewBox="0 0 94.79 99.43"><path d="M255.46,458a4.7,4.7,0,0,1,3.18,1,3.22,3.22,0,0,1,.9,2.35,2.9,2.9,0,0,1-.42,1.59,2.23,2.23,0,0,1-1,.91,3.36,3.36,0,0,1,1.72.84,3.08,3.08,0,0,1,.8,2.23,3.4,3.4,0,0,1-1,2.52,4.72,4.72,0,0,1-3.29,1.06h-4.27a.42.42,0,0,1-.42-.42V458.44a.42.42,0,0,1,.42-.42Zm-1,5.07H255a2.7,2.7,0,0,0,1.46-.36,1.33,1.33,0,0,0,.5-1.1,1.27,1.27,0,0,0-.49-1.05,2.43,2.43,0,0,0-1.49-.31h-.45Zm0,5.15h.69a3.19,3.19,0,0,0,2.13-.5,1.38,1.38,0,0,0,.41-1.05,1.34,1.34,0,0,0-.39-1,3.24,3.24,0,0,0-2-.46h-.79Z" transform="translate(-250.33 -371.34)" style="fill:#231815"/><path d="M273.28,465.4a5.28,5.28,0,0,1-1.38,4,6.06,6.06,0,0,1-7.77,0,5.32,5.32,0,0,1-1.38-4v-6.95a.42.42,0,0,1,.42-.43h2a.42.42,0,0,1,.42.43v6.88a2.92,2.92,0,0,0,.66,2.09,2.64,2.64,0,0,0,3.47,0,2.92,2.92,0,0,0,.66-2.09v-6.88a.42.42,0,0,1,.42-.43h2a.42.42,0,0,1,.42.43Z" transform="translate(-250.33 -371.34)" style="fill:#231815"/><path d="M321.64,465.4a5.32,5.32,0,0,1-1.38,4,6.06,6.06,0,0,1-7.77,0,5.29,5.29,0,0,1-1.39-4v-6.95a.43.43,0,0,1,.43-.43h2a.42.42,0,0,1,.42.43v6.88a2.92,2.92,0,0,0,.66,2.09,2.64,2.64,0,0,0,3.47,0,2.91,2.91,0,0,0,.65-2.09v-6.88a.43.43,0,0,1,.43-.43h2a.42.42,0,0,1,.42.43Z" transform="translate(-250.33 -371.34)" style="fill:#231815"/><path d="M276,470.19V458.31a.29.29,0,0,1,.29-.29H278a.28.28,0,0,1,.24.13l5.65,7.91v-7.75a.29.29,0,0,1,.29-.29H286a.29.29,0,0,1,.29.29v11.88a.29.29,0,0,1-.29.29h-1.68a.27.27,0,0,1-.24-.12l-5.65-7.95v7.78a.29.29,0,0,1-.29.29H276.3A.29.29,0,0,1,276,470.19Z" transform="translate(-250.33 -371.34)" style="fill:#231815"/><path d="M295.25,460.45v9.73a.3.3,0,0,1-.31.3h-2.26a.3.3,0,0,1-.31-.3v-9.73h-3.23a.31.31,0,0,1-.31-.31v-1.81a.31.31,0,0,1,.31-.31h9.34a.31.31,0,0,1,.31.31v1.81a.31.31,0,0,1-.31.31Z" transform="translate(-250.33 -371.34)" style="fill:#231815"/><path d="M307.42,460.63a.46.46,0,0,1-.66.13,2.81,2.81,0,0,0-1.7-.59,1.59,1.59,0,0,0-1.22.43,1.15,1.15,0,0,0-.31.79.86.86,0,0,0,.28.69,5,5,0,0,0,1.57.71l.93.35a5.1,5.1,0,0,1,1.7,1,3.09,3.09,0,0,1,.92,2.31,4.43,4.43,0,0,1-1.11,3.08,4.82,4.82,0,0,1-3.53,1.27,5.29,5.29,0,0,1-2.46-.52,7.65,7.65,0,0,1-1.54-1.08.45.45,0,0,1-.06-.6l1-1.33a.46.46,0,0,1,.66-.07,6.24,6.24,0,0,0,.8.62,3,3,0,0,0,1.57.44,2,2,0,0,0,1.3-.43,1.25,1.25,0,0,0,.45-1,1.07,1.07,0,0,0-.43-.9,6,6,0,0,0-1.45-.69l-1-.36a4.09,4.09,0,0,1-1.74-1,3.08,3.08,0,0,1-.75-2.16,3.84,3.84,0,0,1,1.09-2.81,4,4,0,0,1,3.08-1.14,6,6,0,0,1,3.33,1,.45.45,0,0,1,.15.62Z" transform="translate(-250.33 -371.34)" style="fill:#231815"/><rect x="2.52" y="25.23" width="67.04" height="48.29" style="fill:#fff;stroke:#231815;stroke-linecap:round;stroke-linejoin:round;stroke-width:5.04568525142211px"/><polygon points="2.52 25.23 36.04 49.38 69.56 25.23 2.52 25.23" style="fill:#e60012;stroke:#231815;stroke-linecap:round;stroke-linejoin:round;stroke-width:5.04568525142211px"/><path d="M321.69,373.86a20.91,20.91,0,0,0-17.33,32.59,21.34,21.34,0,0,0,2.92,3.44v8.72l7.82-4a21.15,21.15,0,0,0,6.59,1.06,20.91,20.91,0,1,0,0-41.81Z" transform="translate(-250.33 -371.34)" style="fill:#fff;stroke:#231815;stroke-linejoin:round;stroke-width:5.04568525142211px"/></svg>