<svg id="レイヤー_1" data-name="レイヤー 1" xmlns="http://www.w3.org/2000/svg" viewBox="0 0 94.79 99.43"><path d="M378.24,335a4.73,4.73,0,0,1,3.17.95,3.21,3.21,0,0,1,.9,2.36,3,3,0,0,1-.41,1.59,2.29,2.29,0,0,1-1,.91,3.28,3.28,0,0,1,1.72.84,3,3,0,0,1,.8,2.23,3.4,3.4,0,0,1-1,2.52,4.72,4.72,0,0,1-3.29,1.06h-4.27a.42.42,0,0,1-.42-.42V335.39a.42.42,0,0,1,.42-.42Zm-1,5.06h.47a2.67,2.67,0,0,0,1.46-.35,1.33,1.33,0,0,0,.5-1.1,1.29,1.29,0,0,0-.48-1.05,2.38,2.38,0,0,0-1.5-.32h-.45Zm0,5.16h.7a3.22,3.22,0,0,0,2.13-.5,1.4,1.4,0,0,0,.41-1.05,1.34,1.34,0,0,0-.4-1,3.19,3.19,0,0,0-2.05-.47h-.79Z" transform="translate(-373.11 -248.29)" style="fill:#231815"/><path d="M396.06,342.35a5.26,5.26,0,0,1-1.39,3.94,6,6,0,0,1-7.77,0,5.29,5.29,0,0,1-1.38-3.94v-7a.42.42,0,0,1,.42-.42h2a.42.42,0,0,1,.42.42v6.89a3,3,0,0,0,.65,2.09,2.65,2.65,0,0,0,3.48,0,3,3,0,0,0,.65-2.09v-6.89a.42.42,0,0,1,.42-.42h2a.42.42,0,0,1,.42.42Z" transform="translate(-373.11 -248.29)" style="fill:#231815"/><path d="M444.41,342.35a5.29,5.29,0,0,1-1.38,3.94,6,6,0,0,1-7.77,0,5.29,5.29,0,0,1-1.38-3.94v-7a.42.42,0,0,1,.42-.42h2a.42.42,0,0,1,.42.42v6.89a2.93,2.93,0,0,0,.66,2.09,2.64,2.64,0,0,0,3.47,0,2.93,2.93,0,0,0,.66-2.09v-6.89A.42.42,0,0,1,442,335h2a.42.42,0,0,1,.42.42Z" transform="translate(-373.11 -248.29)" style="fill:#231815"/><path d="M398.78,347.14V335.26a.29.29,0,0,1,.29-.29h1.69a.29.29,0,0,1,.23.12l5.65,7.92v-7.75a.29.29,0,0,1,.29-.29h1.86a.29.29,0,0,1,.29.29v11.88a.29.29,0,0,1-.29.29h-1.68a.29.29,0,0,1-.24-.12l-5.65-7.95v7.78a.29.29,0,0,1-.29.29h-1.86A.29.29,0,0,1,398.78,347.14Z" transform="translate(-373.11 -248.29)" style="fill:#231815"/><path d="M418,337.4v9.72a.3.3,0,0,1-.3.31h-2.26a.31.31,0,0,1-.31-.31V337.4h-3.24a.31.31,0,0,1-.31-.31v-1.81a.31.31,0,0,1,.31-.31h9.35a.31.31,0,0,1,.31.31v1.81a.31.31,0,0,1-.31.31Z" transform="translate(-373.11 -248.29)" style="fill:#231815"/><path d="M430.19,337.58a.45.45,0,0,1-.65.13,2.84,2.84,0,0,0-1.71-.59,1.56,1.56,0,0,0-1.21.43,1.11,1.11,0,0,0-.32.78.88.88,0,0,0,.28.7,5.1,5.1,0,0,0,1.57.71l.93.35a5.15,5.15,0,0,1,1.7,1,3.11,3.11,0,0,1,.92,2.32,4.47,4.47,0,0,1-1.1,3.08,4.84,4.84,0,0,1-3.54,1.27,5.29,5.29,0,0,1-2.46-.52,7.7,7.7,0,0,1-1.54-1.09.46.46,0,0,1-.06-.6l1-1.32a.46.46,0,0,1,.67-.07,5.85,5.85,0,0,0,.79.61,2.9,2.9,0,0,0,1.57.45,2,2,0,0,0,1.31-.43,1.29,1.29,0,0,0,.45-1,1.09,1.09,0,0,0-.43-.89,6.24,6.24,0,0,0-1.46-.69l-1-.36a4.2,4.2,0,0,1-1.74-1,3.07,3.07,0,0,1-.74-2.17,3.82,3.82,0,0,1,1.08-2.8,4,4,0,0,1,3.08-1.14,6,6,0,0,1,3.33,1,.45.45,0,0,1,.15.62Z" transform="translate(-373.11 -248.29)" style="fill:#231815"/><rect x="2.52" y="25.23" width="67.04" height="48.29" style="fill:none;stroke:#231815;stroke-linecap:round;stroke-linejoin:round;stroke-width:5.045685251422107px"/><polygon points="2.52 25.23 36.04 49.38 69.56 25.23 2.52 25.23" style="fill:none;stroke:#231815;stroke-linecap:round;stroke-linejoin:round;stroke-width:5.045685251422107px"/><path d="M444.47,250.81a20.91,20.91,0,0,0-17.34,32.59,21.34,21.34,0,0,0,2.92,3.44v8.71l7.83-4a20.9,20.9,0,1,0,6.59-40.74Z" transform="translate(-373.11 -248.29)" style="fill:#fff;stroke:#231815;stroke-linejoin:round;stroke-width:5.045685251422107px"/></svg>