<svg width="114" height="29" viewBox="0 0 114 29" fill="none" xmlns="http://www.w3.org/2000/svg">
<g clip-path="url(#clip0_82_988)">
<path d="M20.394 27.9695L16.5576 24.1189H64.7258L20.394 27.9695ZM23.9827 8.53739V21.656H21.0161V21.0778C20.2 21.6608 19.224 21.9759 18.2223 21.9797C14.8467 21.9797 12.2834 18.8923 12.2834 15.0996C12.2834 11.3068 14.8467 8.21941 18.2223 8.21941C19.224 8.22327 20.2 8.53835 21.0161 9.12134V8.54318L23.9827 8.53739ZM21.0622 15.0996C21.0622 13.024 19.9101 11.3762 18.2223 11.3762C16.5345 11.3762 15.3421 13.024 15.3421 15.0996C15.3421 17.1752 16.5576 18.823 18.2223 18.823C19.8871 18.823 21.0622 17.1752 21.0622 15.0996ZM44.7834 8.53739V16.2443C44.8165 16.5847 44.7782 16.9282 44.6711 17.2529C44.5639 17.5775 44.3903 17.8761 44.1614 18.1293C43.9324 18.3826 43.6532 18.585 43.3417 18.7235C43.0302 18.862 42.6932 18.9336 42.3525 18.9336C42.0118 18.9336 41.6748 18.862 41.3633 18.7235C41.0518 18.585 40.7726 18.3826 40.5436 18.1293C40.3147 17.8761 40.1411 17.5775 40.034 17.2529C39.9268 16.9282 39.8886 16.5847 39.9216 16.2443V8.53739H36.9666V16.2443C36.9666 19.4069 39.1209 21.9797 42.2719 21.9797C43.1741 21.9659 44.052 21.6843 44.7949 21.1703V21.6617H47.7615V8.53739H44.7834ZM72.4332 21.6617V13.949C72.4001 13.6087 72.4384 13.2651 72.5455 12.9405C72.6526 12.6158 72.8263 12.3173 73.0552 12.064C73.2841 11.8107 73.5633 11.6083 73.8749 11.4698C74.1864 11.3313 74.5233 11.2598 74.8641 11.2598C75.2048 11.2598 75.5417 11.3313 75.8533 11.4698C76.1648 11.6083 76.444 11.8107 76.6729 12.064C76.9019 12.3173 77.0755 12.6158 77.1826 12.9405C77.2897 13.2651 77.328 13.6087 77.295 13.949V21.6617H80.2615V13.949C80.2615 10.7922 78.1072 8.21941 74.9562 8.21941C74.054 8.23319 73.1761 8.51484 72.4332 9.02884V8.53739H69.4551V21.6617H72.4332ZM13.6198 21.6617H9.73728L5.9412 16.5797H3.74648V21.6617H0.641647V5.27076H5.76838C6.96288 5.26964 8.12676 5.65001 9.0916 6.35683C10.0564 7.06366 10.7722 8.06028 11.1353 9.20247C11.4983 10.3447 11.4899 11.5732 11.1112 12.7103C10.7325 13.8473 10.0032 14.834 9.02875 15.5274L13.6198 21.6617ZM8.30294 10.9252C8.30141 10.2515 8.03372 9.60596 7.55856 9.13013C7.0834 8.6543 6.43959 8.38708 5.76838 8.38708H3.74648V13.4691H5.76838C6.43911 13.4646 7.08083 13.1939 7.5535 12.7162C8.02617 12.2386 8.29144 11.5927 8.29142 10.9194L8.30294 10.9252ZM55.7569 18.5628C55.4652 18.7648 55.1204 18.8755 54.7661 18.8808C54.5669 18.8739 54.3712 18.826 54.1911 18.7401C54.011 18.6542 53.8504 18.5322 53.7192 18.3816C53.588 18.2309 53.489 18.0548 53.4283 17.8642C53.3676 17.6736 53.3465 17.4726 53.3664 17.2735V11.6537H55.9009V8.53739H53.3664V5.27076H50.3882V8.53739H48.8157V11.6537H50.3882V17.3139C50.3611 17.9141 50.4547 18.5135 50.6633 19.0766C50.872 19.6396 51.1915 20.1547 51.6027 20.5912C52.0139 21.0277 52.5085 21.3766 53.0569 21.6171C53.6054 21.8577 54.1964 21.9849 54.7949 21.9913C55.8085 21.9603 56.7984 21.6761 57.6751 21.1645L55.7569 18.5628ZM31.3732 14.6948L36.4596 8.54318H32.3007L28.7408 13.1165V4.18381H25.6878V21.6617H28.7408V16.2675L33.1186 21.6617H37.2719L31.3732 14.6948ZM68.2857 16.0246H59.7316C60.1233 19.0253 63.4988 20.5459 65.5265 17.551L68.1475 19.0658C66.4597 21.4652 64.4551 22.0029 62.8882 22.0029C59.7892 22.0029 56.7016 19.1756 56.7016 15.1111C56.7016 11.249 59.1613 8.21941 62.5945 8.21941C66.0276 8.21941 69.0058 11.3068 68.2742 16.0188L68.2857 16.0246ZM65.1924 13.4055C64.6164 10.1563 60.4747 10.3355 59.8468 13.4055H65.1924ZM87.992 1.29877C86.8442 1.9025 85.8688 2.78999 85.1579 3.87738L86.7535 6.87227C87.2936 5.94261 88.0409 5.15107 88.9367 4.55961C89.7764 4.0055 90.7601 3.71191 91.765 3.7155C92.5316 3.6728 93.2919 3.87522 93.9367 4.29366C94.1894 4.47708 94.3931 4.72027 94.5298 5.00165C94.6665 5.28304 94.7318 5.59393 94.7201 5.90675C94.716 6.22058 94.6497 6.53047 94.5251 6.81834C94.4005 7.1062 94.2201 7.36628 93.9943 7.58342C93.2581 8.26601 92.4278 8.8385 91.5288 9.28323C90.2505 9.91434 89.0483 10.6903 87.9459 11.5959C87.1506 12.2466 86.5142 13.0713 86.0853 14.0068C85.7114 14.9076 85.5252 15.8757 85.538 16.8514V19.6324H98.7581V16.3195H89.1959C89.1872 15.815 89.3146 15.3176 89.5645 14.8799C89.8895 14.3698 90.3101 13.928 90.803 13.579C91.5766 13.0106 92.3911 12.5005 93.2397 12.0526C94.756 11.3196 96.1233 10.3099 97.2719 9.0751C98.1313 8.0319 98.5519 6.69361 98.4443 5.34429C98.3368 3.99497 97.7096 2.74083 96.6959 1.84804C95.515 0.853592 93.8906 0.350573 91.8284 0.350573C90.491 0.342468 89.1726 0.668319 87.992 1.29877ZM100.878 0.720607L100.227 10.9368L102.71 12.1567C103.11 11.572 103.645 11.0938 104.271 10.7633C104.898 10.4281 105.599 10.2552 106.31 10.2603C107.236 10.2123 108.146 10.5134 108.862 11.1044C109.179 11.3868 109.43 11.7368 109.596 12.129C109.761 12.5211 109.837 12.9454 109.818 13.3709C109.838 13.8211 109.757 14.27 109.58 14.6844C109.404 15.0988 109.137 15.4679 108.798 15.7645C108.032 16.3904 107.061 16.7078 106.074 16.6548C105.103 16.6602 104.143 16.4383 103.272 16.0068C102.402 15.5752 101.643 14.9459 101.056 14.1687L99.5185 17.3371C101.212 19.1101 103.485 19.9986 106.339 20.0024C107.644 20.0308 108.937 19.7474 110.112 19.1756C111.156 18.6565 112.036 17.8557 112.652 16.863C113.277 15.8351 113.599 14.6502 113.58 13.446C113.599 12.3246 113.329 11.2172 112.796 10.2314C112.291 9.31264 111.546 8.54915 110.642 8.02283C109.683 7.47977 108.597 7.20426 107.497 7.22496C106.784 7.19674 106.073 7.31045 105.405 7.55953C104.737 7.80861 104.124 8.18813 103.603 8.67616L103.902 4.05084H112.635V0.732164L100.878 0.720607ZM88.7523 28.195V25.4718L91.0565 21.6617H89.6509L88.1705 24.3502L86.6843 21.6617H85.1809L87.4851 25.4718V28.2123L88.7523 28.195ZM95.9643 28.195V27.0387H92.8825V25.4718H95.5784V24.3155H92.8825V22.8123H95.8952V21.656H91.5749V28.2066L95.9643 28.195ZM97.8134 28.195L98.2454 26.8537H100.826L101.252 28.195H102.635L100.331 21.6444H98.7869L96.4828 28.195H97.8134ZM99.5415 22.8239L100.475 25.7147H98.6026L99.5415 22.8239ZM104.501 28.195V25.9864H105.279C105.382 25.9922 105.486 25.9922 105.59 25.9864L107.174 28.2066H108.724L106.828 25.68C107.155 25.5073 107.43 25.2497 107.623 24.9342C107.814 24.5983 107.91 24.2164 107.9 23.8299C107.915 23.5275 107.861 23.2257 107.741 22.9479C107.621 22.6701 107.439 22.4238 107.209 22.2284C106.681 21.8245 106.028 21.6199 105.365 21.6502H103.211V28.2008L104.501 28.195ZM106.229 23.032C106.342 23.1276 106.432 23.2486 106.49 23.3852C106.548 23.5218 106.573 23.6701 106.563 23.8183C106.575 23.9667 106.55 24.1156 106.492 24.2525C106.434 24.3894 106.344 24.5102 106.229 24.6046C105.956 24.7882 105.63 24.8775 105.302 24.859H104.478V22.7718H105.279C105.61 22.7574 105.937 22.8552 106.206 23.0493L106.229 23.032ZM113.142 25.1018C112.768 24.7399 112.304 24.4845 111.8 24.3618L111.224 24.1883C110.971 24.1322 110.733 24.0218 110.527 23.8646C110.454 23.8089 110.397 23.737 110.358 23.6546C110.318 23.5722 110.299 23.4817 110.302 23.3905C110.3 23.286 110.322 23.1826 110.369 23.0889C110.415 22.9953 110.483 22.9143 110.567 22.8528C110.784 22.7107 111.04 22.6418 111.298 22.6562C111.603 22.6521 111.905 22.7189 112.18 22.8513C112.454 22.9837 112.695 23.1781 112.883 23.4194L113.424 22.3613C113.171 22.0811 112.855 21.8651 112.502 21.7311C112.116 21.5772 111.703 21.5006 111.287 21.5056C110.874 21.4985 110.464 21.5855 110.089 21.76C109.759 21.9133 109.478 22.1555 109.277 22.4596C109.077 22.7689 108.974 23.1316 108.983 23.5003C108.968 23.9114 109.11 24.3126 109.38 24.6219C109.732 24.9704 110.172 25.2145 110.653 25.3273L111.229 25.5065C111.513 25.5822 111.781 25.7096 112.018 25.8823C112.094 25.9469 112.155 26.0276 112.196 26.1186C112.237 26.2096 112.257 26.3087 112.255 26.4085C112.264 26.5209 112.244 26.6338 112.195 26.7355C112.147 26.8372 112.072 26.9239 111.978 26.9866C111.747 27.1311 111.478 27.1998 111.206 27.1832C110.842 27.1878 110.481 27.1087 110.152 26.952C109.815 26.7792 109.522 26.5321 109.294 26.2292L108.752 27.2873C109.033 27.6348 109.398 27.9036 109.812 28.0678C110.265 28.2556 110.751 28.3499 111.241 28.3453C111.864 28.3851 112.48 28.1914 112.969 27.8019C113.173 27.6195 113.334 27.3934 113.44 27.1402C113.546 26.887 113.593 26.6132 113.58 26.3391C113.592 25.8886 113.428 25.451 113.124 25.1192L113.142 25.1018Z" fill="url(#paint0_linear_82_988)"/>
</g>
<defs>
<linearGradient id="paint0_linear_82_988" x1="16.2753" y1="-17.1563" x2="102.434" y2="42.9461" gradientUnits="userSpaceOnUse">
<stop stop-color="#BF1920"/>
<stop offset="0.27" stop-color="#BF0000"/>
<stop offset="0.4" stop-color="#823C00"/>
<stop offset="0.45" stop-color="#5A6400"/>
<stop offset="0.5" stop-color="#288C00"/>
<stop offset="0.6" stop-color="#00B900"/>
<stop offset="0.72" stop-color="#00B900"/>
<stop offset="0.82" stop-color="#008C23"/>
<stop offset="0.9" stop-color="#006442"/>
</linearGradient>
<clipPath id="clip0_82_988">
<rect width="112.95" height="28" fill="white" transform="translate(0.641647 0.350548)"/>
</clipPath>
</defs>
</svg>
